<svg id="svg" version="1.1" xmlns="http://www.w3.org/2000/svg" xmlns:xlink="http://www.w3.org/1999/xlink" width="400" height="400" viewBox="0, 0, 400,400"><g id="svgg"><path id="path0" d="M180.729 0.234 C 175.681 0.780,171.301 1.360,167.500 1.987 C 63.872 19.078,-8.762 113.037,0.740 217.708 C 10.784 328.369,109.088 409.436,220.000 398.523 C 315.168 389.160,390.604 313.069,399.260 217.708 C 409.172 108.519,329.900 11.962,220.874 0.426 C 216.535 -0.034,184.618 -0.185,180.729 0.234 M203.753 13.851 C 214.756 16.060,222.591 29.196,221.774 44.063 C 221.096 56.411,217.164 66.991,210.740 73.750 C 206.893 77.798,205.559 81.690,205.597 88.750 C 205.626 94.235,207.517 191.337,207.596 191.416 C 207.683 191.503,265.886 194.358,268.542 194.406 C 272.628 194.479,274.365 192.861,277.824 185.759 C 280.073 181.143,281.434 179.583,283.215 179.583 C 283.822 179.583,316.017 184.325,316.406 184.472 C 316.728 184.594,316.773 188.035,316.455 188.231 C 316.339 188.303,311.172 188.250,304.973 188.113 C 295.434 187.902,293.675 187.908,293.521 188.151 C 293.265 188.555,293.288 191.614,293.549 191.775 C 293.668 191.849,298.800 192.235,304.955 192.634 C 311.110 193.033,316.263 193.398,316.406 193.444 C 316.761 193.559,316.769 196.787,316.415 197.006 C 316.276 197.092,311.144 197.331,305.009 197.537 C 298.874 197.744,293.749 197.953,293.620 198.002 C 292.900 198.277,293.084 201.818,293.826 201.970 C 294.071 202.020,299.193 202.214,305.208 202.400 C 318.158 202.801,316.667 202.517,316.667 204.582 C 316.667 206.728,317.799 206.467,305.000 207.273 C 299.099 207.645,294.060 208.033,293.802 208.137 C 293.315 208.332,293.083 211.158,293.500 211.814 C 293.624 212.010,296.115 212.013,304.811 211.828 C 310.944 211.698,316.121 211.652,316.314 211.727 C 316.691 211.871,316.843 214.817,316.502 215.353 C 316.268 215.721,283.590 220.511,282.591 220.324 C 281.083 220.041,279.933 218.535,277.565 213.747 C 275.149 208.862,273.845 207.151,271.757 206.130 C 270.315 205.425,271.352 205.409,249.792 206.450 C 196.319 209.032,195.230 209.077,194.628 208.740 C 193.891 208.329,193.018 206.700,192.719 205.176 C 192.365 203.378,192.400 200.779,193.554 142.604 C 194.139 113.156,194.568 87.891,194.508 86.458 C 194.273 80.830,192.718 77.262,188.568 72.821 C 180.668 64.368,176.374 47.125,178.973 34.288 C 181.859 20.036,192.176 11.527,203.753 13.851 " stroke="none" fill="#6c6b74" fill-rule="evenodd"></path><path id="path1" d="M198.062 13.588 C 188.965 14.358,181.333 22.635,178.973 34.288 C 176.374 47.125,180.668 64.368,188.568 72.821 C 192.718 77.262,194.273 80.830,194.508 86.458 C 194.568 87.891,194.139 113.156,193.554 142.604 C 192.400 200.779,192.365 203.378,192.719 205.176 C 193.018 206.700,193.891 208.329,194.628 208.740 C 195.230 209.077,196.319 209.032,249.792 206.450 C 271.352 205.409,270.315 205.425,271.757 206.130 C 273.845 207.151,275.149 208.862,277.565 213.747 C 279.933 218.535,281.083 220.041,282.591 220.324 C 283.590 220.511,316.268 215.721,316.502 215.353 C 316.843 214.817,316.691 211.871,316.314 211.727 C 316.121 211.652,310.944 211.698,304.811 211.828 C 296.115 212.013,293.624 212.010,293.500 211.814 C 293.083 211.158,293.315 208.332,293.802 208.137 C 294.060 208.033,299.099 207.645,305.000 207.273 C 317.799 206.467,316.667 206.728,316.667 204.582 C 316.667 202.517,318.158 202.801,305.208 202.400 C 299.193 202.214,294.071 202.020,293.826 201.970 C 293.084 201.818,292.900 198.277,293.620 198.002 C 293.749 197.953,298.874 197.744,305.009 197.537 C 311.144 197.331,316.276 197.092,316.415 197.006 C 316.769 196.787,316.761 193.559,316.406 193.444 C 316.263 193.398,311.110 193.033,304.955 192.634 C 298.800 192.235,293.668 191.849,293.549 191.775 C 293.288 191.614,293.265 188.555,293.521 188.151 C 293.675 187.908,295.434 187.902,304.973 188.113 C 311.172 188.250,316.339 188.303,316.455 188.231 C 316.773 188.035,316.728 184.594,316.406 184.472 C 316.017 184.325,283.822 179.583,283.215 179.583 C 281.434 179.583,280.073 181.143,277.824 185.759 C 274.365 192.861,272.628 194.479,268.542 194.406 C 265.886 194.358,207.683 191.503,207.596 191.416 C 207.517 191.337,205.626 94.235,205.597 88.750 C 205.559 81.690,206.893 77.798,210.740 73.750 C 215.433 68.812,218.569 62.380,220.492 53.750 C 225.551 31.051,214.997 12.154,198.062 13.588 " stroke="none" fill="#fbfbfb" fill-rule="evenodd"></path></g></svg>