<svg xmlns="http://www.w3.org/2000/svg" width="400" height="400" viewBox="0 0 400 400">
  <defs>
    <radialGradient id="star" cx="50%" cy="50%" r="50%" fx="50%" fy="50%">
      <stop offset="0%" stop-color="white" stop-opacity="1" />
      <stop offset="100%" stop-color="white" stop-opacity="0" />
    </radialGradient>
  </defs>
  
  <!-- Small stars -->
  <circle cx="20" cy="30" r="1" fill="white" opacity="0.8" />
  <circle cx="60" cy="70" r="0.8" fill="white" opacity="0.7" />
  <circle cx="100" cy="15" r="1.2" fill="white" opacity="0.9" />
  <circle cx="140" cy="90" r="0.7" fill="white" opacity="0.6" />
  <circle cx="180" cy="40" r="1" fill="white" opacity="0.8" />
  <circle cx="220" cy="60" r="0.9" fill="white" opacity="0.7" />
  <circle cx="260" cy="20" r="1.1" fill="white" opacity="0.9" />
  <circle cx="300" cy="80" r="0.8" fill="white" opacity="0.7" />
  <circle cx="340" cy="35" r="1" fill="white" opacity="0.8" />
  <circle cx="380" cy="65" r="0.9" fill="white" opacity="0.7" />
  
  <circle cx="25" cy="120" r="0.8" fill="white" opacity="0.7" />
  <circle cx="65" cy="160" r="1" fill="white" opacity="0.8" />
  <circle cx="105" cy="105" r="0.7" fill="white" opacity="0.6" />
  <circle cx="145" cy="180" r="1.2" fill="white" opacity="0.9" />
  <circle cx="185" cy="130" r="0.9" fill="white" opacity="0.7" />
  <circle cx="225" cy="150" r="1" fill="white" opacity="0.8" />
  <circle cx="265" cy="110" r="0.8" fill="white" opacity="0.7" />
  <circle cx="305" cy="170" r="1.1" fill="white" opacity="0.9" />
  <circle cx="345" cy="125" r="0.9" fill="white" opacity="0.7" />
  <circle cx="385" cy="155" r="1" fill="white" opacity="0.8" />
  
  <circle cx="30" cy="210" r="1" fill="white" opacity="0.8" />
  <circle cx="70" cy="250" r="0.8" fill="white" opacity="0.7" />
  <circle cx="110" cy="195" r="1.2" fill="white" opacity="0.9" />
  <circle cx="150" cy="270" r="0.7" fill="white" opacity="0.6" />
  <circle cx="190" cy="220" r="1" fill="white" opacity="0.8" />
  <circle cx="230" cy="240" r="0.9" fill="white" opacity="0.7" />
  <circle cx="270" cy="200" r="1.1" fill="white" opacity="0.9" />
  <circle cx="310" cy="260" r="0.8" fill="white" opacity="0.7" />
  <circle cx="350" cy="215" r="1" fill="white" opacity="0.8" />
  <circle cx="390" cy="245" r="0.9" fill="white" opacity="0.7" />
  
  <circle cx="35" cy="300" r="0.8" fill="white" opacity="0.7" />
  <circle cx="75" cy="340" r="1" fill="white" opacity="0.8" />
  <circle cx="115" cy="285" r="0.7" fill="white" opacity="0.6" />
  <circle cx="155" cy="360" r="1.2" fill="white" opacity="0.9" />
  <circle cx="195" cy="310" r="0.9" fill="white" opacity="0.7" />
  <circle cx="235" cy="330" r="1" fill="white" opacity="0.8" />
  <circle cx="275" cy="290" r="0.8" fill="white" opacity="0.7" />
  <circle cx="315" cy="350" r="1.1" fill="white" opacity="0.9" />
  <circle cx="355" cy="305" r="0.9" fill="white" opacity="0.7" />
  <circle cx="395" cy="335" r="1" fill="white" opacity="0.8" />
  
  <!-- Medium stars -->
  <circle cx="50" cy="50" r="1.5" fill="white" opacity="0.9" />
  <circle cx="150" cy="150" r="1.7" fill="white" opacity="0.9" />
  <circle cx="250" cy="250" r="1.6" fill="white" opacity="0.9" />
  <circle cx="350" cy="350" r="1.8" fill="white" opacity="0.9" />
  
  <!-- Large stars (with glow) -->
  <circle cx="200" cy="100" r="2" fill="url(#star)" opacity="1" />
  <circle cx="100" cy="200" r="2.2" fill="url(#star)" opacity="1" />
  <circle cx="300" cy="300" r="2.1" fill="url(#star)" opacity="1" />
  <circle cx="350" cy="50" r="2.3" fill="url(#star)" opacity="1" />
</svg> 